<?xml version="1.0" encoding="UTF-8"?>
<svg version="1.1" xmlns="http://www.w3.org/2000/svg" width="280" height="280">
<path d="M0 0 C92.4 0 184.8 0 280 0 C280 92.4 280 184.8 280 280 C187.6 280 95.2 280 0 280 C0 187.6 0 95.2 0 0 Z " fill="#F03E2F" transform="translate(0,0)"/>
<path d="M0 0 C11.8956128 8.43999302 21.34721148 20.29855741 24.25 34.8125 C24.25 36.1325 24.25 37.4525 24.25 38.8125 C19.23327623 39.06055039 14.22014499 39.24150266 9.19873047 39.36181641 C7.4930199 39.41197485 5.78773664 39.48012724 4.08349609 39.56689453 C-1.34005281 39.836014 -6.41755681 39.93714357 -11.75 38.8125 C-14.99963715 35.86353393 -16.20983151 32.84187031 -17.75 28.8125 C-24.60943186 21.64127578 -34.47416973 18.72415901 -44.1875 18.4375 C-52.89162756 18.50103378 -61.15152297 20.86540074 -68.25 26.0625 C-74.03687243 32.42805967 -76.3429783 38.26504437 -76.75 46.8125 C-63.20119223 55.28675431 -48.02572194 57.97359869 -32.59619141 61.18505859 C-30.2879479 61.69390967 -28.03813267 62.25882613 -25.7734375 62.9296875 C-22.96111654 63.75085615 -20.26891478 64.2616687 -17.375 64.6875 C-12.01472458 65.63816276 -7.55266264 67.27729655 -2.75 69.8125 C-1.94820313 70.23402344 -1.14640625 70.65554687 -0.3203125 71.08984375 C11.63161308 77.8104748 20.64894693 86.7232973 25.25 99.8125 C27.42171181 109.87754896 27.56441006 121.36101694 23.25 130.8125 C22.92515625 131.59238281 22.6003125 132.37226563 22.265625 133.17578125 C20.54791825 137.21239212 18.79737633 141.22301517 16.25 144.8125 C15.59 144.8125 14.93 144.8125 14.25 144.8125 C13.97414063 145.41578125 13.69828125 146.0190625 13.4140625 146.640625 C8.11994272 156.51824446 -7.32719382 161.96323127 -17.375 165.3125 C-41.06570042 170.9699807 -66.00668806 167.22532531 -86.75 154.8125 C-101.34943294 145.12413285 -108.50109027 131.44850173 -112.75 114.8125 C-107.37485095 114.76314491 -101.99983315 114.72680198 -96.62451172 114.70263672 C-94.79506127 114.69256516 -92.96562697 114.67890724 -91.13623047 114.66162109 C-88.51005066 114.63742323 -85.88408325 114.62602868 -83.2578125 114.6171875 C-82.02649094 114.60170364 -82.02649094 114.60170364 -80.77029419 114.58590698 C-78.76210858 114.58550816 -76.75444618 114.6900046 -74.75 114.8125 C-72.57256649 116.98993351 -71.79131347 119.00897896 -70.7265625 121.86328125 C-68.13409345 127.03784947 -64.91549552 129.60888963 -59.75 132.0625 C-58.203125 132.81273437 -58.203125 132.81273437 -56.625 133.578125 C-45.93470911 138.16797816 -31.45723653 136.7635729 -20.75 132.8125 C-14.97778894 129.87193965 -9.44184813 124.79244229 -6.86328125 118.7265625 C-5.78404444 114.73109005 -5.69766908 110.91756957 -5.75 106.8125 C-12.16642626 103.21485059 -18.48257728 100.37984812 -25.5546875 98.3515625 C-26.28734329 98.13886215 -27.01999908 97.9261618 -27.77485657 97.70701599 C-36.82448077 95.1414179 -46.03126531 93.2702653 -55.24682617 91.40844727 C-68.01934279 88.8106702 -80.56222867 85.61938864 -91.125 77.5625 C-92.01960938 76.89734375 -92.91421875 76.2321875 -93.8359375 75.546875 C-94.78339844 74.68835938 -94.78339844 74.68835938 -95.75 73.8125 C-95.75 73.1525 -95.75 72.4925 -95.75 71.8125 C-97.235 71.3175 -97.235 71.3175 -98.75 70.8125 C-103.19712712 65.2832826 -106.17257405 58.99625893 -105.75 51.8125 C-106.41 51.8125 -107.07 51.8125 -107.75 51.8125 C-108.39173716 33.77255545 -106.85190893 20.92459982 -94.25 7.0625 C-93.425 6.32 -92.6 5.5775 -91.75 4.8125 C-91.25113281 4.33296875 -90.75226563 3.8534375 -90.23828125 3.359375 C-67.69174576 -17.45281161 -24.41349913 -16.46549744 0 0 Z " fill="#FEFDFC" transform="translate(183.75,61.1875)"/>
<path d="M0 0 C8.09993982 3.61912205 13.87652317 10.14800089 17.42578125 18.2578125 C19.53620012 24.75022836 20.69229688 31.18437593 21 38 C20.34 38 19.68 38 19 38 C18.72414063 38.60328125 18.44828125 39.2065625 18.1640625 39.828125 C12.86994272 49.70574446 -2.57719382 55.15073127 -12.625 58.5 C-36.31570042 64.1574807 -61.25668806 60.41282531 -82 48 C-96.59943294 38.31163285 -103.75109027 24.63600173 -108 8 C-102.62485095 7.95064491 -97.24983315 7.91430198 -91.87451172 7.89013672 C-90.04506127 7.88006516 -88.21562697 7.86640724 -86.38623047 7.84912109 C-83.76005066 7.82492323 -81.13408325 7.81352868 -78.5078125 7.8046875 C-77.27649094 7.78920364 -77.27649094 7.78920364 -76.02029419 7.77340698 C-74.01210858 7.77300816 -72.00444618 7.8775046 -70 8 C-67.82256649 10.17743351 -67.04131347 12.19647896 -65.9765625 15.05078125 C-63.38409345 20.22534947 -60.16549552 22.79638963 -55 25.25 C-53.96875 25.75015625 -52.9375 26.2503125 -51.875 26.765625 C-41.18470911 31.35547816 -26.70723653 29.9510729 -16 26 C-10.26824844 23.08005109 -4.62886856 17.98998079 -2.1484375 11.9140625 C-1.64911746 9.96895012 -1.31976723 7.98255683 -1 6 C-0.79375 4.845 -0.5875 3.69 -0.375 2.5 C-0.189375 1.2625 -0.189375 1.2625 0 0 Z " fill="#F8AFA9" transform="translate(179,168)"/>
<path d="M0 0 C11.8956128 8.43999302 21.34721148 20.29855741 24.25 34.8125 C24.25 36.1325 24.25 37.4525 24.25 38.8125 C19.23327623 39.06055039 14.22014499 39.24150266 9.19873047 39.36181641 C7.4930199 39.41197485 5.78773664 39.48012724 4.08349609 39.56689453 C-1.34005281 39.836014 -6.41755681 39.93714357 -11.75 38.8125 C-14.99963715 35.86353393 -16.20983151 32.84187031 -17.75 28.8125 C-24.60943186 21.64127578 -34.47416973 18.72415901 -44.1875 18.4375 C-52.89162756 18.50103378 -61.15152297 20.86540074 -68.25 26.0625 C-73.8812181 32.25683991 -76.3246076 38.64888896 -77.75 46.8125 C-85.79395594 42.90059722 -91.90093085 36.77111487 -95.05078125 28.32421875 C-96.06458435 24.83304954 -96.97553998 21.3641903 -97.75 17.8125 C-97.9871875 16.74257812 -98.224375 15.67265625 -98.46875 14.5703125 C-98.75 11.8125 -98.75 11.8125 -96.875 8.875 C-73.27873885 -15.95632716 -27.96047334 -18.85772702 0 0 Z " fill="#F8AFA9" transform="translate(183.75,61.1875)"/>
</svg>
